<?xml version="1.0" encoding="utf-8"?>
<!-- Generator: Adobe Illustrator 23.0.1, SVG Export Plug-In . SVG Version: 6.00 Build 0)  -->
<svg version="1.1" id="Слой_1" xmlns="http://www.w3.org/2000/svg" xmlns:xlink="http://www.w3.org/1999/xlink" x="0px" y="0px"
	 viewBox="0 0 2196.1 486.6" style="enable-background:new 0 0 2196.1 486.6;" xml:space="preserve">
<style type="text/css">
	.st0{fill:#FFFFFF;}
	.st1{fill:#14A0FF;}
	.st2{fill:#002F5E;}
	.st3{fill:#00A950;}
	.st4{fill:#F1B607;}
	.st5{fill:#10122B;}
	.st6{fill:#F2529C;}
	.st7{fill:#206DA3;}
	.st8{fill:#FDFDFD;}
	.st9{fill:#F2529C;stroke:#FFFFFF;stroke-width:28.691;stroke-miterlimit:10;}
</style>
<g id="tMDgIy_3_">
	<path class="st2" d="M5.4,486.5c2.7-11.2,5.1-21.5,7.7-31.8c18.3-74.7,36.4-149.3,55-223.9c3.1-12.4,8.6-24.1,12.9-36.2
		c0.6-1.5,1.1-3.1,2.1-6c-27.8,27.3-54.5,53.5-81.2,79.8c-0.1-0.6-0.3-1.8-0.3-3.1c-0.6-40-1.2-80-1.6-120c0-2.4,1.4-5.5,3.2-7.1
		C51.6,93,100.3,47.9,148.9,2.8c1.5-1.4,4-2.6,6-2.6c37.2-0.2,74.3-0.1,111.5-0.1c1,0,2,0.2,3.4,0.3
		c-37.3,153.2-74.5,306.2-112.1,460.5c2.1-1.8,3.2-2.6,4.2-3.6C294.1,333.9,426.3,210.6,558.4,87.1c29.3-27.4,58.1-55.4,87-83.2
		c2.9-2.8,5.7-3.8,9.6-3.8c66.2,0.1,132.3,0.1,198.5,0.1c1.7,0,3.3,0,6.5,0c-76,68.7-151,136.6-226.1,204.5
		C688.1,298.3,742,391.8,796.4,486c-2.4,0.2-3.8,0.4-5.2,0.4c-46.8-0.2-93.7,0.1-140.5-0.8c-26.9-0.5-53.5-4.2-78.6-14.8
		c-19.5-8.2-34.6-21.5-45.2-39.9c-14.4-25.1-29-50.1-43.6-75.2c-0.8-1.4-1.7-2.8-2.8-4.5c-1.2,1-2.3,1.7-3.2,2.5
		c-47.6,43-95.3,86-142.8,129c-2.9,2.6-5.8,3.8-9.7,3.8c-51.7-0.2-103.3-0.2-155-0.2c-52.3,0-104.6,0-157,0
		C10.7,486.5,8.6,486.5,5.4,486.5z"/>
	<path class="st1" d="M1240.1,485.3c3.6-14.8,6.9-28.8,10.3-42.8c25.6-104.7,51.1-209.5,76.7-314.2c10-41,20-82,29.9-123
		c0.9-3.6,2.3-4.9,6-4.9c120.8,0.1,241.6,0.1,362.4,0c4.1,0,5.1,0.8,4.1,5.2c-8,34.3-15.9,68.6-23.5,103c-1,4.6-2.8,6.1-7.6,6.1
		c-71.7-0.2-143.3,0-215-0.3c-5.4,0-7.4,1.6-8.7,6.7c-4.6,18.7-9.6,37.3-14.5,56c-1.8,6.8-1.7,7,5.5,7c61.2,0,122.3,0,183.5,0
		c11,0,22,0,33,0c1.8,0,3.6,0.2,6.1,0.3c-1.8,8.1-3.4,15.6-5.1,23.2c-6.4,28-13.1,56-19.3,84c-1,4.7-2.8,6.1-7.6,6.1
		c-72.7-0.2-145.3-0.1-218-0.1c-7.5,0-7.4,0-9.1,7.1c-4.8,20.5-9.7,41.1-14.5,61.6c-0.4,1.7-0.5,3.5-0.8,5.9c91.8,0,183,0,275.2,0
		c-1.8,7.8-3.4,14.8-5.1,21.8c-6.9,28.7-14,57.5-20.8,86.2c-1,4.2-2.9,5.4-7.1,5.4c-136.8-0.1-273.6-0.1-410.4-0.1
		C1244.2,485.6,1242.6,485.5,1240.1,485.3z"/>
	<path class="st1" d="M1738.2,114.8c3.3-14.5,6.3-27.7,9.4-41c5.2-22.7,10.5-45.3,15.5-68c0.9-4.1,2.6-5.5,7-5.5
		c140.1,0.1,280.3,0.1,420.4,0.1c6.3,0,6.3,0,4.9,6.1c-8.4,34.2-16.9,68.4-25.2,102.6c-1,4.1-2.7,5.5-7.1,5.5
		c-45.5-0.2-91,0-136.5-0.2c-4.8,0-6.5,1.5-7.6,6.1c-28.5,117-57.2,234-85.8,351c-3.5,14.1-3.4,14.2-18.1,14.2
		c-40.8,0-81.6,0-122.5,0c-2,0-3.9,0-6.8,0c30.3-123.9,60.3-246.9,90.6-370.8C1830.2,114.8,1784.7,114.8,1738.2,114.8z"/>
	<path class="st2" d="M393,200.1C354.3,133.5,315.8,67.2,277,0.3c2-0.1,3.2-0.2,4.5-0.2c51.1,0,102.3-0.1,153.4,0.2
		c31.8,0.2,61.2,8.1,86.5,28.4c9.8,7.9,18.1,17.1,25.5,28C495.6,104.4,444.5,152.1,393,200.1z"/>
	<path class="st1" d="M933.9,485.6c-32.2,0-64.3-0.1-96.5,0.1c-4.2,0-6.5-1.3-8.6-5c-16.2-28.5-32.6-56.9-49.1-85.3
		c-2-3.4-2.6-6.4-1.6-10.3c18.9-76.8,37.6-153.6,56.4-230.5c11.9-48.7,23.8-97.5,35.6-146.2c1.7-7.1,1.7-7.1,9.2-7.1
		c67.5-0.1,135-0.2,202.5-0.4c15,0,30-0.7,45-0.4c23,0.5,45.8,2.6,67.9,9.8c28.3,9.2,52.2,24.2,67.4,50.8
		c8.8,15.4,12.8,32.1,12.6,49.7c-0.5,41-14.3,76.5-44.2,105.1c-4.1,3.9-8.7,7.3-13.2,10.6c-5.5,4.1-5.6,4,0,7.7
		c20,13.1,30.3,31.9,32,55.4c3,41.5-10.9,78-35.2,110.7c-26.5,35.7-62.7,57.6-104.4,71.2c-22,7.2-44.7,12.2-67.8,12.9
		c-35.9,1.2-71.9,1.2-107.9,1.8C933.9,486,933.9,485.8,933.9,485.6z M924.6,372.4c3.1,0,4.9,0,6.7,0c36.7,0,73.3,0.2,110-0.1
		c10.4-0.1,21-1.1,31.2-3c22.8-4.2,39-15.9,44.3-40.1c4.3-19.9-1.9-32.4-21.6-37.6c-11.4-3-23.6-4.3-35.4-4.5
		c-36-0.6-72-0.1-108-0.3c-5.2,0-7.3,1.6-8.4,6.7c-4.1,18.2-8.6,36.2-12.9,54.3C928.5,355.5,926.7,363.4,924.6,372.4z M970.3,183.4
		c2.9,0.3,5,0.6,7.1,0.6c31.7,0,63.3,0.3,95-0.1c11.2-0.2,22.6-1.3,33.6-3.8c18.6-4.1,31-15.2,34.9-34.7c2.6-13.3-2-22.7-14.9-26.5
		c-8.5-2.5-17.6-4.1-26.4-4.2c-33.3-0.5-66.6-0.2-100-0.2c-11.7,0-11.8,0-14.7,11.5C980,144.8,975.3,163.6,970.3,183.4z"/>
</g>
</svg>
